<svg class="slick-arrow" xmlns="http://www.w3.org/2000/svg"
 xmlns:xlink="http://www.w3.org/1999/xlink"
 width="40px" height="40px">
<path class="arrow-bkg" fill-rule="evenodd" fill="rgb(244, 212, 228)"
 d="M20.000,-0.001 C31.046,-0.001 40.000,8.954 40.000,20.000 C40.000,31.045 31.046,40.000 20.000,40.000 C8.954,40.000 -0.000,31.045 -0.000,20.000 C-0.000,8.954 8.954,-0.001 20.000,-0.001 Z"/>
<path class="arrow-line" fill-rule="evenodd"  fill="rgb(239, 82, 159)"
 d="M25.714,20.795 C25.593,20.918 25.445,20.987 25.291,21.032 L18.676,27.712 C18.292,28.098 17.669,28.098 17.285,27.712 C16.902,27.325 16.902,26.698 17.285,26.311 L23.536,19.999 L17.285,13.688 C16.902,13.301 16.902,12.674 17.285,12.287 C17.669,11.900 18.292,11.900 18.676,12.287 L25.291,18.967 C25.445,19.012 25.593,19.081 25.714,19.204 C25.931,19.422 26.011,19.715 25.984,20.000 C26.011,20.284 25.931,20.577 25.714,20.795 Z"/>
</svg>