<svg xmlns="http://www.w3.org/2000/svg" style="display:none"><symbol id="arrow-down" viewBox="0 0 12 8"><path fill-rule="evenodd" clip-rule="evenodd" d="M1.172 1.172a1 1 0 0 0 0 1.414l4.242 4.243c.203.202.47.3.736.292a.997.997 0 0 0 .736-.292l4.243-4.243a1 1 0 1 0-1.414-1.414L6.15 4.736 2.586 1.172a1 1 0 0 0-1.414 0z" fill="#9B9B9B" fill-opacity=".75"/></symbol><symbol id="arrow-up" viewBox="0 0 11 7"><path fill-rule="evenodd" clip-rule="evenodd" d="M10.351 6.49a.992.992 0 0 0 0-1.4L6.158.886a.984.984 0 0 0-.724-.29.984.984 0 0 0-.73.29L.511 5.089a.992.992 0 0 0 0 1.401.987.987 0 0 0 1.398 0L5.43 2.96l3.523 3.53a.987.987 0 0 0 1.397 0z" fill="#9B9B9B" fill-opacity=".75"/></symbol><symbol id="close" viewBox="0 0 20 20"><path opacity=".9" fill-rule="evenodd" clip-rule="evenodd" d="M5.051 5.05a1 1 0 0 0 0 1.414L8.587 10 5.05 13.536a1 1 0 1 0 1.415 1.414L10 11.414l3.536 3.536a1 1 0 1 0 1.414-1.414L11.415 10l3.536-3.536a1 1 0 0 0-1.414-1.414L10 8.586 6.466 5.05a1 1 0 0 0-1.415 0z" fill="#B4B4B4"/></symbol><symbol id="logo-collapsed" viewBox="0 0 80 28"><path fill-rule="evenodd" clip-rule="evenodd" d="M65.594 9.345c0-5.1 2.4-8.59 2.4-8.59L68.577 0c.281.14 1.032.347 1.98.607 1.475.406 3.428.942 4.83 1.567 1.149.513 2.312 1.213 3.19 2.3C79.451 5.564 80 7.045 80 8.809c0 1.899-.82 3.25-1.651 4.027a5.29 5.29 0 0 1-1.126.805c.366 1.812.376 3.576.376 5.024h-2.402l.001-.468c.008-3.221.017-6.553-3.49-9.388l1.463-1.956c1.637 1.323 2.688 2.81 3.34 4.334l.065-.051c.038-.029.073-.056.122-.102.446-.422.9-1.012.9-2.225 0-1.27-.356-2.085-.9-2.76-.544-.677-1.313-1.233-2.25-1.65-.939-.418-1.926-.7-2.882-.973-.664-.19-1.314-.375-1.921-.6-.46.758-1.651 2.92-1.651 6.52 0 2.34.624 3.341 1.163 3.835.54.494 1.177.575 1.426.575.31 0 .848-.243 1.534-.553.257-.116.535-.242.83-.367l.9 2.262c-.201.087-.413.196-.638.313-.702.365-1.54.8-2.626.8a4.576 4.576 0 0 1-3.04-1.228c-1.12-1.03-1.95-2.833-1.95-5.637zM1.98 25.381c1.314 1.343 2.97 2.006 4.931 2.006 1.962 0 3.6-.68 4.932-2.042 1.35-1.362 2.016-3.017 2.016-4.967 0-1.95-.666-3.606-2.016-4.986-1.332-1.38-2.97-2.06-4.914-2.06-1.944 0-3.581.68-4.931 2.06C.666 16.772 0 18.446 0 20.415c0 1.968.666 3.624 1.98 4.966zm7.907-8.118c.81.828 1.205 1.858 1.205 3.109.018 1.233-.378 2.263-1.187 3.09-.81.829-1.8 1.233-2.97 1.233-1.17 0-2.16-.404-2.97-1.232-.792-.828-1.188-1.858-1.188-3.091s.396-2.281 1.206-3.109c.81-.828 1.782-1.251 2.952-1.251s2.142.423 2.952 1.251zm7.479 4.537v5.372h-2.538V17.145h2.484v1.399c.522-.975 1.692-1.674 3.078-1.674 1.061 0 1.98.367 2.717 1.085.738.717 1.116 1.748 1.116 3.09v6.127h-2.538v-5.427c0-1.6-.827-2.484-2.07-2.484-1.35 0-2.25 1.049-2.25 2.539zm17.616 1.25c.054-.404.09-.79.09-1.14 0-1.564-.468-2.778-1.386-3.68-.918-.9-2.106-1.36-3.528-1.36-1.512 0-2.735.496-3.69 1.49-.953.993-1.421 2.244-1.421 3.771 0 1.453.45 2.704 1.368 3.716.918 1.012 2.232 1.527 3.96 1.527 1.62 0 3.041-.46 4.283-1.38l-1.008-1.821c-.846.589-2.106 1.012-3.168 1.012-1.547 0-2.501-.718-2.861-2.134h7.36zm-7.341-1.913c.306-1.306 1.26-2.097 2.537-2.097 1.296 0 2.214.791 2.448 2.097h-4.985zm7.355 3.693c1.098 1.637 2.97 2.538 5.04 2.538 1.457 0 2.627-.386 3.527-1.159.9-.772 1.35-1.766 1.35-2.98 0-1.508-.756-2.63-2.268-3.385a39.196 39.196 0 0 0-1.62-.717l-1.313-.589c-.72-.368-1.08-.81-1.08-1.343 0-.791.648-1.306 1.71-1.306.99 0 2.177.46 2.915 1.27l1.422-1.988c-1.188-1.232-2.646-1.84-4.373-1.84-1.332 0-2.43.387-3.276 1.141-.846.755-1.26 1.693-1.26 2.833 0 1.435.702 2.558 2.106 3.385.36.203.882.46 1.566.736l.3.118c.527.207.86.338 1.014.416.81.386 1.205.864 1.205 1.416 0 .865-.81 1.454-1.907 1.454-1.368 0-2.664-.663-3.528-1.895l-1.53 1.895zm11.824-6.415c-.99 1.012-1.476 2.263-1.476 3.734 0 1.49.486 2.741 1.476 3.753s2.25 1.527 3.78 1.527c1.529 0 2.789-.515 3.779-1.527.99-1.012 1.476-2.262 1.476-3.753 0-1.471-.486-2.722-1.476-3.734-.99-1.03-2.25-1.545-3.78-1.545-1.53 0-2.79.515-3.78 1.545zM50.604 25c-.773 0-1.421-.276-1.943-.828-.522-.57-.774-1.25-.774-2.042 0-.79.252-1.471.774-2.023s1.17-.828 1.943-.828c.774 0 1.404.276 1.926.828.522.552.792 1.232.792 2.023 0 .791-.27 1.472-.792 2.042a2.528 2.528 0 0 1-1.926.828zm8.624-11.721c.594.589.594 1.656 0 2.263s-1.638.607-2.232 0c-.594-.607-.594-1.674 0-2.263.594-.607 1.638-.607 2.232 0zm-2.384 3.857h2.538v10.026h-2.538V17.137zm3.949-3.965h2.538v13.981h-2.538V13.172z" fill="#20BF55"/></symbol><symbol id="logo-extended" viewBox="0 0 64 16"><path fill-rule="evenodd" clip-rule="evenodd" d="M7.533 14.987c-1.939 0-3.575-.656-4.873-1.986C1.36 11.67.703 10.03.703 8.08c0-1.95.658-3.609 1.974-4.975C4.011 1.739 5.63 1.065 7.551 1.065c1.92 0 3.54.674 4.856 2.04 1.334 1.367 1.992 3.007 1.992 4.939s-.658 3.572-1.992 4.92c-1.317 1.349-2.935 2.023-4.874 2.023zm4.132-6.948c0-1.24-.391-2.26-1.192-3.08-.8-.82-1.76-1.24-2.917-1.24-1.156 0-2.116.42-2.917 1.24-.8.82-1.191 1.859-1.191 3.08 0 1.22.391 2.241 1.174 3.061.8.82 1.778 1.221 2.934 1.221 1.157 0 2.135-.4 2.935-1.22.8-.82 1.192-1.841 1.174-3.062zm6.2 6.735V9.453c0-1.476.889-2.515 2.223-2.515 1.227 0 2.045.875 2.045 2.46v5.376h2.508V8.706c0-1.33-.373-2.35-1.102-3.062-.73-.71-1.637-1.075-2.686-1.075-1.37 0-2.526.693-3.042 1.659V4.843h-2.454v9.931h2.508zm17.497-5.212c0 .347-.035.73-.089 1.13H28c.356 1.403 1.298 2.114 2.828 2.114 1.05 0 2.294-.419 3.13-1.002l.996 1.804c-1.227.911-2.632 1.367-4.233 1.367-1.707 0-3.006-.51-3.913-1.513-.907-1.002-1.352-2.241-1.352-3.68 0-1.513.463-2.753 1.405-3.737.943-.984 2.153-1.476 3.647-1.476 1.405 0 2.579.456 3.486 1.349s1.37 2.095 1.37 3.644zM30.526 6.72c-1.262 0-2.205.784-2.507 2.078h4.926c-.23-1.294-1.138-2.078-2.419-2.078zm9.742 8.25c-2.046 0-3.895-.893-4.98-2.515l1.511-1.877c.854 1.22 2.135 1.877 3.486 1.877 1.085 0 1.886-.583 1.886-1.44 0-.546-.392-1.02-1.192-1.403-.178-.09-.605-.255-1.298-.528a13.586 13.586 0 0 1-1.548-.73c-1.387-.82-2.08-1.93-2.08-3.352 0-1.13.408-2.06 1.244-2.807.836-.747 1.921-1.13 3.238-1.13 1.707 0 3.148.602 4.322 1.823l-1.405 1.968c-.73-.802-1.904-1.257-2.882-1.257-1.05 0-1.69.51-1.69 1.293 0 .529.356.966 1.067 1.33l1.299.584c.73.31 1.263.547 1.6.71 1.495.748 2.242 1.86 2.242 3.354 0 1.202-.445 2.186-1.334 2.952-.89.765-2.046 1.148-3.486 1.148zm5.245-5.17c0-1.458.48-2.697 1.459-3.699.978-1.02 2.223-1.53 3.735-1.53s2.757.51 3.735 1.53c.978 1.002 1.459 2.241 1.459 3.7 0 1.475-.48 2.714-1.459 3.717-.978 1.002-2.223 1.512-3.735 1.512s-2.757-.51-3.735-1.512c-.978-1.002-1.459-2.242-1.459-3.718zm3.278 2.005c.516.547 1.156.82 1.921.82.765 0 1.388-.273 1.903-.82.516-.565.783-1.24.783-2.023 0-.783-.267-1.458-.783-2.004a2.496 2.496 0 0 0-1.903-.82c-.765 0-1.405.273-1.92.82-.517.546-.766 1.22-.766 2.004s.25 1.458.765 2.023zm10.443-8.549c.587-.601.587-1.658 0-2.241-.587-.602-1.618-.602-2.205 0-.587.583-.587 1.64 0 2.241.587.601 1.618.601 2.205 0zm.152 1.58h-2.508v9.93h2.508v-9.93zM63.289.905H60.78v13.85h2.508V.906z" fill="#20BF55"/></symbol><symbol id="logo-searching" viewBox="0 0 13 17"><path fill-rule="evenodd" clip-rule="evenodd" d="M2.496.66S.395 3.715.395 8.178c0 2.454.726 4.03 1.707 4.933a4.005 4.005 0 0 0 2.659 1.073c1.255 0 2.13-.662 2.856-.973l-.788-1.98c-.944.403-1.695.806-2.068.806a1.94 1.94 0 0 1-1.248-.503c-.472-.432-1.017-1.31-1.017-3.356 0-3.15 1.042-5.042 1.444-5.704 1.297.478 2.811.755 4.202 1.375.82.365 1.494.852 1.97 1.443.476.592.788 1.305.788 2.416 0 1.061-.398 1.577-.788 1.946-.066.063-.103.084-.164.135-.57-1.334-1.49-2.634-2.922-3.792l-1.28 1.711c3.217 2.6 3.053 5.68 3.053 8.624h2.1c0-1.267-.007-2.81-.328-4.396a4.63 4.63 0 0 0 .985-.705c.727-.679 1.445-1.862 1.445-3.523 0-1.543-.48-2.84-1.248-3.792-.767-.952-1.785-1.564-2.79-2.013C6.948 1.005 3.633.315 3.004 0l-.508.66z" fill="#20BF55"/></symbol><symbol id="search" viewBox="0 0 16 14"><path fill-rule="evenodd" clip-rule="evenodd" d="M10.105 5.979c0 2.201-1.808 3.985-4.043 3.985-2.23 0-4.042-1.784-4.042-3.985 0-2.202 1.812-3.986 4.043-3.986 2.234 0 4.042 1.784 4.042 3.986zm.098 4.366a6.08 6.08 0 0 1-4.14 1.612C2.715 11.957 0 9.281 0 5.98 0 2.677 2.715 0 6.063 0c3.347 0 6.062 2.677 6.062 5.979a5.9 5.9 0 0 1-.691 2.778l4.207 3.483c.425.354.48.982.125 1.404-.36.421-.996.477-1.426.123l-4.137-3.422z" fill="#9B9B9B" fill-opacity=".75"/></symbol></svg>