<svg class="slick-arrow"
 xmlns="http://www.w3.org/2000/svg"
 xmlns:xlink="http://www.w3.org/1999/xlink"
 width="40px" height="40px">
<path class="arrow-bkg" fill-rule="evenodd" fill="rgb(244, 212, 228)"
 d="M20.000,-0.001 C31.045,-0.001 40.000,8.954 40.000,20.000 C40.000,31.045 31.045,40.000 20.000,40.000 C8.954,40.000 -0.000,31.045 -0.000,20.000 C-0.000,8.954 8.954,-0.001 20.000,-0.001 Z"/>
<path class="arrow-line" fill-rule="evenodd"  fill="rgb(239, 82, 159)"
 d="M22.714,13.688 L16.464,19.999 L22.714,26.311 C23.098,26.698 23.098,27.325 22.714,27.712 C22.330,28.098 21.708,28.098 21.324,27.712 L14.709,21.032 C14.555,20.987 14.407,20.918 14.285,20.795 C14.069,20.577 13.988,20.284 14.016,20.000 C13.988,19.715 14.069,19.422 14.285,19.204 C14.407,19.081 14.555,19.012 14.709,18.967 L21.324,12.287 C21.708,11.900 22.330,11.900 22.714,12.287 C23.098,12.674 23.098,13.301 22.714,13.688 Z"/>
</svg>