<svg
 xmlns="http://www.w3.org/2000/svg"
 xmlns:xlink="http://www.w3.org/1999/xlink"
 width="20px" height="20px">
<path fill-rule="evenodd"  fill="rgb(0, 0, 0)"
 d="M10.000,20.000 C4.477,20.000 0.000,15.523 0.000,10.000 C0.000,4.477 4.477,-0.000 10.000,-0.000 C15.523,-0.000 20.000,4.477 20.000,10.000 C20.000,15.523 15.523,20.000 10.000,20.000 ZM12.993,4.086 C12.805,4.058 12.160,4.000 11.410,4.000 C9.840,4.000 8.764,4.995 8.764,6.820 L8.764,8.392 L6.993,8.392 L6.993,10.526 L8.764,10.526 L8.764,16.000 L10.889,16.000 L10.889,10.526 L12.653,10.526 L12.924,8.392 L10.889,8.392 L10.889,7.029 C10.889,6.416 11.049,5.990 11.903,5.990 L12.993,5.990 L12.993,4.086 Z"/>
</svg>