<svg
 xmlns="http://www.w3.org/2000/svg"
 xmlns:xlink="http://www.w3.org/1999/xlink"
 width="18px" height="19px">
<path fill-rule="evenodd"  fill="rgb(0, 0, 0)"
 d="M3.000,3.654 C3.000,3.254 2.660,2.923 2.250,2.923 C1.840,2.923 1.500,3.254 1.500,3.654 C1.500,4.053 1.840,4.384 2.250,4.384 C2.660,4.384 3.000,4.053 3.000,3.654 L3.000,3.654 ZM16.500,10.231 C16.500,9.808 16.172,8.781 15.621,8.769 C15.867,8.495 16.031,7.958 16.031,7.593 C16.031,7.056 15.809,6.600 15.410,6.234 C15.551,5.994 15.621,5.720 15.621,5.446 C15.621,4.921 15.351,4.270 14.859,4.008 C14.894,3.802 14.918,3.585 14.918,3.368 C14.918,2.032 14.051,1.461 12.750,1.461 L11.250,1.461 C9.867,1.461 8.531,1.861 7.242,2.295 C6.609,2.512 5.531,2.923 4.875,2.923 L4.500,2.923 L4.500,10.231 L4.875,10.231 C5.801,10.231 7.195,12.183 7.723,12.845 C8.016,13.199 8.297,13.553 8.625,13.885 C9.762,15.049 9.375,16.796 10.125,17.538 C11.730,17.538 12.000,16.682 12.000,15.346 C12.000,13.999 10.875,13.028 10.875,11.692 L15.000,11.692 C15.785,11.692 16.500,11.007 16.500,10.231 L16.500,10.231 ZM18.000,10.242 C18.000,11.818 16.617,13.154 15.000,13.154 L12.937,13.154 C13.289,13.862 13.500,14.547 13.500,15.346 C13.500,16.100 13.453,16.785 13.090,17.470 C12.516,18.577 11.344,19.000 10.125,19.000 C9.727,19.000 9.352,18.840 9.070,18.577 C7.898,17.458 8.262,15.654 7.570,14.912 C7.125,14.455 6.715,13.964 6.316,13.462 C5.965,13.017 5.168,11.989 4.711,11.692 L1.500,11.692 C0.668,11.692 -0.000,11.041 -0.000,10.231 L-0.000,2.923 C-0.000,2.112 0.668,1.461 1.500,1.461 L4.875,1.461 C5.203,1.461 6.152,1.119 6.492,1.005 C8.180,0.434 9.644,-0.000 11.449,-0.000 L12.762,-0.000 C14.894,-0.000 16.430,1.233 16.418,3.368 L16.418,3.425 C16.875,3.996 17.121,4.727 17.121,5.458 C17.121,5.618 17.109,5.789 17.086,5.949 C17.379,6.451 17.531,7.022 17.531,7.593 C17.531,7.856 17.496,8.130 17.426,8.381 C17.801,8.929 18.000,9.580 18.000,10.242 L18.000,10.242 Z"/>
</svg>