<svg
 xmlns="http://www.w3.org/2000/svg"
 xmlns:xlink="http://www.w3.org/1999/xlink"
 width="67px" height="38px">
<path fill-rule="evenodd"  fill="rgb(215, 86, 156)"
 d="M61.977,29.999 C62.610,30.837 63.000,31.868 63.000,32.999 C63.000,35.761 60.761,37.999 58.000,37.999 C55.239,37.999 53.000,35.761 53.000,32.999 C53.000,31.868 53.390,30.837 54.023,29.999 L50.000,29.999 L48.000,29.999 L31.977,29.999 C32.610,30.837 33.000,31.868 33.000,32.999 C33.000,35.761 30.761,37.999 28.000,37.999 C25.239,37.999 23.000,35.761 23.000,32.999 C23.000,31.868 23.390,30.837 24.023,29.999 L16.000,29.999 L16.000,22.000 L8.000,22.000 L7.571,16.000 L1.000,16.000 C0.448,16.000 -0.000,15.552 -0.000,14.999 C-0.000,14.447 0.448,14.000 1.000,14.000 L32.586,14.000 L30.171,11.585 C29.781,11.195 29.781,10.562 30.171,10.171 C30.562,9.781 31.195,9.781 31.586,10.171 L35.334,13.919 C35.514,13.959 35.688,14.031 35.828,14.171 C36.055,14.398 36.134,14.704 36.098,14.999 C36.134,15.295 36.055,15.601 35.828,15.828 C35.688,15.968 35.514,16.040 35.334,16.079 L31.586,19.828 C31.195,20.218 30.562,20.218 30.171,19.828 C29.781,19.437 29.781,18.804 30.171,18.413 L32.585,16.000 L7.600,16.000 L8.000,20.000 L18.000,20.000 L18.000,27.999 L48.000,27.999 L48.000,5.000 L48.000,2.000 L18.000,2.000 L18.000,9.999 L7.143,9.999 L7.000,7.999 L16.000,7.999 L16.000,-0.000 L50.000,-0.000 L50.000,5.000 L57.000,5.000 C62.523,5.000 67.000,9.477 67.000,14.999 L67.000,29.999 L61.977,29.999 ZM28.000,30.000 C26.343,30.000 25.000,31.343 25.000,33.000 C25.000,34.657 26.343,36.000 28.000,36.000 C29.657,36.000 31.000,34.657 31.000,33.000 C31.000,31.343 29.657,30.000 28.000,30.000 ZM58.000,36.000 C59.657,36.000 61.000,34.657 61.000,33.000 C61.000,31.343 59.657,30.000 58.000,30.000 C56.343,30.000 55.000,31.343 55.000,33.000 C55.000,34.657 56.343,36.000 58.000,36.000 ZM65.000,14.999 C65.000,10.977 60.960,7.000 57.000,7.000 L50.000,7.000 L50.000,27.999 L65.000,27.999 L65.000,14.999 Z"/>
</svg>