<svg
 xmlns="http://www.w3.org/2000/svg"
 xmlns:xlink="http://www.w3.org/1999/xlink"
 width="20px" height="21px">
<path fill-rule="evenodd"  fill="rgb(0, 0, 0)"
 d="M17.077,12.588 C17.077,13.367 15.692,14.000 14.885,14.000 L6.461,14.000 C5.654,14.000 5.000,13.367 5.000,12.588 L3.000,5.411 C3.000,5.179 3.072,4.968 3.176,4.775 L2.432,2.000 L-0.000,2.000 L-0.000,-0.001 L4.000,-0.001 L4.000,0.124 L5.038,4.000 L18.538,4.000 C19.346,4.000 20.000,4.632 20.000,5.411 L17.077,12.588 ZM7.500,15.999 C8.881,15.999 10.000,17.119 10.000,18.500 C10.000,19.880 8.881,21.000 7.500,21.000 C6.119,21.000 5.000,19.880 5.000,18.500 C5.000,17.119 6.119,15.999 7.500,15.999 ZM14.500,15.999 C15.881,15.999 17.000,17.119 17.000,18.500 C17.000,19.880 15.881,21.000 14.500,21.000 C13.119,21.000 12.000,19.880 12.000,18.500 C12.000,17.119 13.119,15.999 14.500,15.999 Z"/>
</svg>