<svg
 xmlns="http://www.w3.org/2000/svg"
 xmlns:xlink="http://www.w3.org/1999/xlink"
 width="13px" height="8px">
<path fill-rule="evenodd"
 d="M12.243,2.171 L7.383,7.031 C7.340,7.104 7.305,7.180 7.242,7.242 C7.038,7.447 6.768,7.538 6.500,7.528 C6.232,7.538 5.962,7.447 5.757,7.242 C5.695,7.180 5.659,7.104 5.617,7.031 L0.757,2.171 C0.367,1.781 0.367,1.147 0.757,0.757 C1.148,0.366 1.781,0.366 2.171,0.757 L6.500,5.085 L10.828,0.757 C11.219,0.366 11.852,0.366 12.243,0.757 C12.633,1.147 12.633,1.781 12.243,2.171 Z"/>
</svg>