<svg
 xmlns="http://www.w3.org/2000/svg"
 xmlns:xlink="http://www.w3.org/1999/xlink"
 width="18px" height="19px">
<path fill-rule="evenodd"  fill="rgb(0, 0, 0)"
 d="M3.000,15.346 C3.000,14.947 2.660,14.615 2.250,14.615 C1.840,14.615 1.500,14.947 1.500,15.346 C1.500,15.746 1.840,16.077 2.250,16.077 C2.660,16.077 3.000,15.746 3.000,15.346 L3.000,15.346 ZM16.500,8.769 C16.500,7.993 15.785,7.308 15.000,7.308 L10.875,7.308 C10.875,5.972 12.000,5.001 12.000,3.654 C12.000,2.318 11.730,1.461 10.125,1.461 C9.375,2.204 9.762,3.951 8.625,5.115 C8.297,5.446 8.016,5.800 7.723,6.154 C7.195,6.817 5.801,8.769 4.875,8.769 L4.500,8.769 L4.500,16.077 L4.875,16.077 C5.531,16.077 6.609,16.488 7.242,16.705 C8.531,17.139 9.867,17.538 11.250,17.538 L12.668,17.538 C13.992,17.538 14.918,17.025 14.918,15.632 C14.918,15.415 14.894,15.198 14.859,14.992 C15.352,14.729 15.621,14.079 15.621,13.553 C15.621,13.279 15.551,13.005 15.410,12.766 C15.809,12.400 16.031,11.943 16.031,11.407 C16.031,11.041 15.867,10.505 15.621,10.231 C16.172,10.219 16.500,9.192 16.500,8.769 L16.500,8.769 ZM18.000,8.758 C18.000,9.420 17.801,10.071 17.426,10.619 C17.496,10.870 17.531,11.144 17.531,11.407 C17.531,11.978 17.379,12.549 17.086,13.051 C17.109,13.211 17.121,13.382 17.121,13.542 C17.121,14.273 16.875,15.004 16.418,15.575 C16.441,17.733 14.930,19.000 12.762,19.000 L11.250,19.000 C9.586,19.000 8.039,18.520 6.492,17.995 C6.152,17.881 5.203,17.538 4.875,17.538 L1.500,17.538 C0.668,17.538 -0.000,16.888 -0.000,16.077 L-0.000,8.769 C-0.000,7.958 0.668,7.308 1.500,7.308 L4.711,7.308 C5.168,7.011 5.965,5.983 6.316,5.538 C6.715,5.035 7.125,4.544 7.570,4.076 C8.273,3.346 7.898,1.541 9.070,0.422 C9.352,0.160 9.727,0.000 10.125,0.000 C11.344,0.000 12.516,0.422 13.090,1.530 C13.453,2.226 13.500,2.889 13.500,3.654 C13.500,4.453 13.289,5.138 12.937,5.846 L15.000,5.846 C16.617,5.846 18.000,7.182 18.000,8.758 L18.000,8.758 Z"/>
</svg>