<svg
 xmlns="http://www.w3.org/2000/svg"
 xmlns:xlink="http://www.w3.org/1999/xlink"
 width="55px" height="50px">
<path fill-rule="evenodd"  stroke="rgb(215, 86, 156)" stroke-width="2px" stroke-linecap="butt" stroke-linejoin="miter" fill="none"
 d="M44.750,24.999 C44.749,25.012 35.000,14.547 35.000,9.727 C35.000,4.907 39.029,0.999 44.000,0.999 C48.971,0.999 53.000,4.907 53.000,9.727 C53.000,14.547 44.754,24.909 44.750,24.999 ZM44.250,8.094 C43.145,8.094 42.250,8.989 42.250,10.094 C42.250,11.198 43.145,12.094 44.250,12.094 C45.355,12.094 46.250,11.198 46.250,10.094 C46.250,8.989 45.355,8.094 44.250,8.094 ZM41.000,28.000 L26.000,40.000 C26.000,40.000 27.800,34.633 33.000,31.000 C37.562,27.812 41.000,28.000 41.000,28.000 ZM1.000,26.999 C1.000,20.372 6.373,15.000 13.000,15.000 C19.627,15.000 25.000,20.372 25.000,26.999 C25.000,33.627 14.006,47.876 14.000,48.000 C13.999,48.017 1.000,33.627 1.000,26.999 ZM18.000,26.999 C18.000,24.238 15.761,22.000 13.000,22.000 C10.239,22.000 8.000,24.238 8.000,26.999 C8.000,29.761 10.239,32.000 13.000,32.000 C15.761,32.000 18.000,29.761 18.000,26.999 Z"/>
</svg>