<svg
 xmlns="http://www.w3.org/2000/svg"
 xmlns:xlink="http://www.w3.org/1999/xlink"
 width="57px" height="42px">
<path fill-rule="evenodd"  fill="rgb(215, 86, 156)"
 d="M55.000,12.000 L53.000,12.000 L53.000,39.999 C53.000,41.104 52.105,41.999 51.000,41.999 L5.000,41.999 C3.895,41.999 3.000,41.104 3.000,39.999 L3.000,12.000 L2.000,12.000 C0.895,12.000 -0.000,11.104 -0.000,10.000 L-0.000,2.000 C-0.000,0.895 0.895,-0.001 2.000,-0.001 L19.000,-0.001 L21.000,-0.001 L35.000,-0.001 L37.000,-0.001 L55.000,-0.001 C56.104,-0.001 57.000,0.895 57.000,2.000 L57.000,10.000 C57.000,11.104 56.104,12.000 55.000,12.000 ZM21.000,1.999 L21.000,10.999 C21.000,10.999 21.000,10.999 21.000,10.999 C21.000,10.999 21.000,11.000 21.000,11.000 L21.000,25.999 C21.000,25.999 29.003,21.075 29.000,20.999 C28.995,20.882 35.000,24.999 35.000,24.999 L35.000,1.999 L21.000,1.999 ZM55.000,8.000 L55.000,2.000 C55.000,2.000 54.105,1.999 53.000,1.999 L37.000,1.999 L37.000,10.000 L47.000,10.000 C47.552,10.000 48.000,10.447 48.000,10.999 C48.000,11.552 47.552,12.000 47.000,12.000 L37.000,12.000 L37.000,28.999 C37.000,28.999 28.995,23.882 29.000,23.999 C29.003,24.075 19.000,28.999 19.000,28.999 L19.000,12.000 L9.000,12.000 C8.448,12.000 8.000,11.552 8.000,10.999 C8.000,10.447 8.448,10.000 9.000,10.000 L19.000,10.000 L19.000,1.999 L4.000,1.999 C2.895,1.999 2.000,2.000 2.000,2.000 L2.000,10.000 L5.000,10.000 L5.000,37.999 C5.000,39.104 5.000,40.000 5.000,40.000 L51.000,40.000 C51.000,40.000 51.000,39.104 51.000,37.999 L51.000,10.000 L55.000,10.000 C55.000,10.000 55.000,9.104 55.000,8.000 Z"/>
</svg>