<svg
 xmlns="http://www.w3.org/2000/svg"
 xmlns:xlink="http://www.w3.org/1999/xlink"
 width="20px" height="20px">
<path fill-rule="evenodd"  fill="rgb(0, 0, 0)"
 d="M10.000,20.000 C4.477,20.000 -0.000,15.523 -0.000,10.000 C-0.000,4.477 4.477,-0.000 10.000,-0.000 C15.523,-0.000 20.000,4.477 20.000,10.000 C20.000,15.523 15.523,20.000 10.000,20.000 ZM15.884,9.380 C16.745,8.376 17.087,7.761 16.978,7.499 C16.978,7.499 16.876,7.243 16.242,7.314 L14.142,7.326 C13.981,7.307 13.865,7.365 13.865,7.365 C13.865,7.365 13.741,7.422 13.682,7.563 C13.340,8.337 12.902,9.003 12.902,9.003 C11.969,10.398 11.590,10.474 11.436,10.385 C11.079,10.186 11.174,9.579 11.174,9.143 C11.174,7.787 11.407,7.224 10.715,7.077 C10.488,7.032 10.321,7.000 9.730,6.993 C8.979,6.987 8.345,6.993 7.987,7.147 C7.747,7.250 7.565,7.480 7.674,7.493 C7.812,7.512 8.126,7.569 8.294,7.768 C8.294,7.768 8.476,8.030 8.505,8.606 C8.585,10.199 8.213,10.398 8.213,10.398 C7.929,10.532 7.433,10.308 6.704,8.990 C6.704,8.990 6.281,8.337 5.953,7.621 C5.895,7.486 5.778,7.416 5.778,7.416 C5.778,7.416 5.647,7.326 5.457,7.301 L3.459,7.314 C3.153,7.314 3.044,7.435 3.044,7.435 C3.044,7.435 2.934,7.537 3.036,7.749 C4.597,10.967 6.376,12.580 6.376,12.580 C6.376,12.580 8.002,14.070 9.847,13.968 L10.685,13.968 C10.941,13.949 11.072,13.827 11.072,13.827 C11.072,13.827 11.188,13.712 11.181,13.501 C11.167,12.516 11.692,12.368 11.692,12.368 C12.202,12.227 12.858,13.322 13.558,13.744 C13.558,13.744 14.091,14.064 14.492,13.994 L16.358,13.968 C17.343,13.962 16.876,13.245 16.876,13.245 C16.840,13.187 16.606,12.746 15.483,11.831 C14.317,10.877 14.470,11.031 15.884,9.380 Z"/>
</svg>