<svg
 xmlns="http://www.w3.org/2000/svg"
 xmlns:xlink="http://www.w3.org/1999/xlink"
 width="52px" height="40px">
<path fill-rule="evenodd"  fill="rgb(215, 86, 156)"
 d="M38.000,37.000 C31.349,35.082 26.001,39.999 26.000,40.000 L26.000,40.000 C26.000,40.000 21.151,35.582 14.500,37.500 C5.604,40.065 0.500,36.500 0.500,36.500 L0.500,0.500 C0.500,0.500 5.063,5.567 14.500,3.500 C21.619,1.941 26.000,5.000 26.000,5.000 C26.000,5.000 30.881,1.440 38.000,2.999 C47.437,5.066 52.000,-0.001 52.000,-0.001 L52.000,35.999 C52.000,35.999 46.896,39.565 38.000,37.000 ZM14.500,6.500 C5.063,8.567 3.000,5.000 3.000,5.000 L2.500,34.500 C2.500,34.500 5.604,37.065 14.500,34.500 C19.365,33.097 23.256,35.080 25.000,36.249 L25.000,7.449 C23.329,6.649 19.631,5.376 14.500,6.500 ZM38.000,5.999 C32.779,4.856 28.771,6.463 27.000,7.403 L27.000,36.220 C28.846,34.918 33.061,32.576 38.000,34.000 C46.896,36.565 50.000,33.999 50.000,33.999 L50.000,4.000 C50.000,4.000 47.437,8.066 38.000,5.999 ZM44.000,17.000 L32.000,17.000 C31.448,17.000 31.000,16.552 31.000,15.999 C31.000,15.447 31.448,15.000 32.000,15.000 L44.000,15.000 C44.552,15.000 45.000,15.447 45.000,15.999 C45.000,16.552 44.552,17.000 44.000,17.000 ZM35.000,21.000 L41.000,21.000 C41.552,21.000 42.000,21.447 42.000,22.000 C42.000,22.552 41.552,22.999 41.000,22.999 L35.000,22.999 C34.448,22.999 34.000,22.552 34.000,22.000 C34.000,21.447 34.448,21.000 35.000,21.000 ZM20.000,17.000 L8.000,17.000 C7.448,17.000 7.000,16.552 7.000,15.999 C7.000,15.447 7.448,15.000 8.000,15.000 L20.000,15.000 C20.552,15.000 21.000,15.447 21.000,15.999 C21.000,16.552 20.552,17.000 20.000,17.000 ZM11.000,21.000 L17.000,21.000 C17.552,21.000 18.000,21.447 18.000,22.000 C18.000,22.552 17.552,22.999 17.000,22.999 L11.000,22.999 C10.448,22.999 10.000,22.552 10.000,22.000 C10.000,21.447 10.448,21.000 11.000,21.000 Z"/>
</svg>