<svg
 xmlns="http://www.w3.org/2000/svg"
 xmlns:xlink="http://www.w3.org/1999/xlink"
 width="16px" height="16px">
<path fill-rule="evenodd"  fill="rgb(0, 0, 0)"
 d="M4.842,1.274 L3.936,0.326 C3.936,0.326 2.817,-0.421 2.124,0.326 C1.431,1.072 0.311,2.222 0.311,2.222 C0.311,2.222 -0.815,3.063 1.218,6.014 C3.250,8.967 9.373,15.496 9.373,15.496 C9.373,15.496 10.668,16.657 12.998,15.496 C15.328,14.335 15.717,13.600 15.717,13.600 C15.717,13.600 16.336,12.636 15.717,11.703 C14.749,10.246 13.904,9.807 13.904,9.807 C13.904,9.807 12.418,9.351 11.186,10.755 C9.324,12.877 4.842,6.963 4.842,6.963 C4.842,6.963 4.261,5.843 4.842,5.066 C6.017,3.497 6.804,3.717 5.749,2.222 C5.051,1.235 4.842,1.274 4.842,1.274 Z"/>
</svg>