<svg
 xmlns="http://www.w3.org/2000/svg"
 xmlns:xlink="http://www.w3.org/1999/xlink"
 width="16px" height="16px">
<path fill-rule="evenodd"  fill="rgb(19, 15, 35)"
 d="M7.999,16.000 C3.581,16.000 -0.001,12.418 -0.001,8.000 C-0.001,3.582 3.581,-0.000 7.999,-0.000 C12.418,-0.000 15.999,3.582 15.999,8.000 C15.999,12.418 12.418,16.000 7.999,16.000 ZM7.999,2.000 C4.686,2.000 1.999,4.686 1.999,8.000 C1.999,11.314 4.686,14.000 7.999,14.000 C11.313,14.000 13.999,11.314 13.999,8.000 C13.999,4.686 11.313,2.000 7.999,2.000 ZM10.999,9.000 L8.999,9.000 L8.999,11.000 C8.999,11.552 8.552,12.000 7.999,12.000 C7.447,12.000 6.999,11.552 6.999,11.000 L6.999,9.000 L5.000,9.000 C4.447,9.000 3.999,8.552 3.999,8.000 C3.999,7.448 4.447,7.000 5.000,7.000 L6.999,7.000 L6.999,5.000 C6.999,4.448 7.447,4.000 7.999,4.000 C8.552,4.000 8.999,4.448 8.999,5.000 L8.999,7.000 L10.999,7.000 C11.552,7.000 12.000,7.448 12.000,8.000 C12.000,8.552 11.552,9.000 10.999,9.000 Z"/>
</svg>