<svg width="80" height="28" viewBox="0 0 80 28" fill="none" xmlns="http://www.w3.org/2000/svg">
<path fill-rule="evenodd" clip-rule="evenodd" d="M65.5938 9.34514C65.5938 4.24472 67.9949 0.754962 67.9949 0.754962L68.5763 0C68.857 0.140655 69.608 0.346972 70.5561 0.607473C72.0314 1.01283 73.9842 1.54938 75.386 2.17387C76.535 2.68679 77.6981 3.38666 78.5751 4.47481C79.4521 5.56297 80.0008 7.0442 80.0008 8.80825C80.0008 10.7065 79.1801 12.0583 78.35 12.8349C77.9513 13.2088 77.548 13.4677 77.2244 13.6402C77.5902 15.4522 77.5996 17.2163 77.5996 18.6639H75.1984C75.1984 18.5084 75.1988 18.3525 75.1992 18.1964C75.2075 14.9747 75.2161 11.6429 71.7092 8.80825L73.1725 6.85245C74.8092 8.17549 75.8597 9.66152 76.5116 11.1859C76.536 11.166 76.557 11.15 76.5771 11.1348C76.6151 11.106 76.6501 11.0795 76.6992 11.0325C77.1447 10.6107 77.5996 10.021 77.5996 8.80825C77.5996 7.53794 77.2432 6.72302 76.6992 6.04712C76.1552 5.37122 75.386 4.81516 74.4481 4.39812C73.51 3.97953 72.523 3.69778 71.567 3.42487C70.9027 3.23523 70.2533 3.04985 69.6457 2.82581C69.1861 3.5832 67.9949 5.74513 67.9949 9.34514C67.9949 11.6844 68.6187 12.6863 69.158 13.18C69.6973 13.6738 70.3351 13.7553 70.5837 13.7553C70.894 13.7553 71.4323 13.512 72.1175 13.2024C72.3749 13.0861 72.6529 12.9605 72.9473 12.8349L73.8478 15.0975C73.6465 15.1835 73.4353 15.2932 73.2103 15.41C72.5076 15.775 71.6708 16.2096 70.5837 16.2096C69.9271 16.2096 68.6656 16.0131 67.5447 14.9824C66.4238 13.9518 65.5938 12.1494 65.5938 9.34514ZM1.9798 25.3815C3.29366 26.7245 4.94949 27.3868 6.91128 27.3868C8.87308 27.3868 10.5109 26.7061 11.8428 25.3447C13.1926 23.9834 13.8586 22.3277 13.8586 20.3777C13.8586 18.4276 13.1926 16.7719 11.8428 15.3922C10.5109 14.0124 8.87308 13.3318 6.92928 13.3318C4.98548 13.3318 3.34765 14.0124 1.99779 15.3922C0.665931 16.7719 0 18.446 0 20.4145C0 22.3829 0.665931 24.0386 1.9798 25.3815ZM9.88661 17.263C10.6965 18.0908 11.0925 19.121 11.0925 20.372C11.1105 21.6046 10.7145 22.6348 9.90461 23.4626C9.09469 24.2905 8.10479 24.6952 6.93491 24.6952C5.76503 24.6952 4.77514 24.2905 3.96522 23.4626C3.1733 22.6348 2.77734 21.6046 2.77734 20.372C2.77734 19.1394 3.1733 18.0908 3.98322 17.263C4.79314 16.4351 5.76503 16.012 6.93491 16.012C8.10479 16.012 9.07669 16.4351 9.88661 17.263ZM17.3659 21.7999V27.1717H14.8281V17.1455H17.3119V18.5437C17.8338 17.5686 19.0037 16.8696 20.3895 16.8696C21.4514 16.8696 22.3693 17.2375 23.1073 17.955C23.8452 18.6724 24.2232 19.7026 24.2232 21.0456V27.1717H21.6854V21.7447C21.6854 20.1442 20.8575 19.2611 19.6156 19.2611C18.2658 19.2611 17.3659 20.3097 17.3659 21.7999ZM34.9818 23.0508C35.0358 22.6461 35.0718 22.2598 35.0718 21.9102C35.0718 20.3465 34.6039 19.1323 33.686 18.2309C32.7681 17.3295 31.5802 16.8696 30.1583 16.8696C28.6465 16.8696 27.4226 17.3663 26.4687 18.3597C25.5148 19.3531 25.0469 20.6041 25.0469 22.131C25.0469 23.5843 25.4968 24.8353 26.4147 25.8471C27.3326 26.8589 28.6465 27.374 30.3743 27.374C31.9942 27.374 33.416 26.9141 34.6579 25.9943L33.65 24.173C32.8041 24.7617 31.5442 25.1848 30.4823 25.1848C28.9345 25.1848 27.9806 24.4674 27.6206 23.0508H34.9818ZM27.6406 21.1373C27.9466 19.8311 28.9005 19.04 30.1784 19.04C31.4742 19.04 32.3921 19.8311 32.6261 21.1373H27.6406ZM34.9961 24.8296C36.094 26.4669 37.9658 27.3684 40.0356 27.3684C41.4934 27.3684 42.6633 26.982 43.5632 26.2094C44.4631 25.4367 44.9131 24.4433 44.9131 23.2291C44.9131 21.7206 44.1571 20.5984 42.6453 19.8442C42.3033 19.6786 41.7634 19.4394 41.0255 19.1267L39.7116 18.538C38.9917 18.1701 38.6317 17.7285 38.6317 17.195C38.6317 16.404 39.2797 15.8889 40.3415 15.8889C41.3314 15.8889 42.5193 16.3488 43.2572 17.1582L44.6791 15.1714C43.4912 13.9388 42.0334 13.3318 40.3055 13.3318C38.9737 13.3318 37.8758 13.7181 37.0299 14.4723C36.184 15.2266 35.77 16.1648 35.77 17.3054C35.77 18.7404 36.4719 19.8626 37.8758 20.6904C38.2358 20.8928 38.7577 21.1503 39.4416 21.4263C39.5481 21.4681 39.6483 21.5074 39.7423 21.5443C40.2687 21.7507 40.6028 21.8817 40.7555 21.9598C41.5654 22.3461 41.9614 22.8244 41.9614 23.3763C41.9614 24.2409 41.1515 24.8296 40.0536 24.8296C38.6857 24.8296 37.3898 24.1674 36.5259 22.9348L34.9961 24.8296ZM46.8196 18.4149C45.8297 19.4267 45.3438 20.6777 45.3438 22.1494C45.3438 23.6395 45.8297 24.8905 46.8196 25.9023C47.8095 26.9141 49.0694 27.4292 50.5992 27.4292C52.129 27.4292 53.3889 26.9141 54.3788 25.9023C55.3687 24.8905 55.8547 23.6395 55.8547 22.1494C55.8547 20.6777 55.3687 19.4267 54.3788 18.4149C53.3889 17.3847 52.129 16.8696 50.5992 16.8696C49.0694 16.8696 47.8095 17.3847 46.8196 18.4149ZM50.6044 25.0012C49.8305 25.0012 49.1826 24.7253 48.6606 24.1734C48.1387 23.6031 47.8867 22.9224 47.8867 22.1313C47.8867 21.3403 48.1387 20.6596 48.6606 20.1077C49.1826 19.5558 49.8305 19.2799 50.6044 19.2799C51.3784 19.2799 52.0083 19.5558 52.5302 20.1077C53.0522 20.6596 53.3222 21.3403 53.3222 22.1313C53.3222 22.9224 53.0522 23.6031 52.5302 24.1734C52.0083 24.7253 51.3784 25.0012 50.6044 25.0012ZM59.228 13.28C59.8219 13.8687 59.8219 14.9357 59.228 15.5428C58.6341 16.1499 57.5902 16.1499 56.9962 15.5428C56.4023 14.9357 56.4023 13.8687 56.9962 13.28C57.5902 12.6729 58.6341 12.6729 59.228 13.28ZM56.8438 17.137H59.3815V27.1632H56.8438V17.137ZM60.793 13.1719H63.3307V27.1533H60.793V13.1719Z" fill="#20BF55"/>
</svg>
