<svg
    width="64"
    height="16"
    viewBox="0 0 64 16"
    fill="none"
    xmlns="http://www.w3.org/2000/svg"
  >
    <path
      fill-rule="evenodd"
      clip-rule="evenodd"
      d="M7.5331 14.987C5.59438 14.987 3.95803 14.3309 2.65963 13.0007C1.36122 11.6704 0.703125 10.0303 0.703125 8.08044C0.703125 6.13057 1.36122 4.47227 2.67741 3.10554C4.01139 1.73881 5.62996 1.06455 7.55089 1.06455C9.47182 1.06455 11.0904 1.73881 12.4066 3.10554C13.7406 4.47227 14.3986 6.11234 14.3986 8.04399C14.3986 9.97563 13.7406 11.6157 12.4066 12.9642C11.0904 14.3127 9.47182 14.987 7.5331 14.987ZM11.6651 8.0388C11.6651 6.79963 11.2738 5.77914 10.4734 4.9591C9.67303 4.13906 8.71257 3.71993 7.55645 3.71993C6.40034 3.71993 5.43987 4.13906 4.63948 4.9591C3.83909 5.77914 3.44779 6.81785 3.44779 8.0388C3.44779 9.25974 3.83909 10.2802 4.6217 11.1003C5.42208 11.9203 6.40034 12.3212 7.55645 12.3212C8.71257 12.3212 9.69082 11.9203 10.4912 11.1003C11.2916 10.2802 11.6829 9.25974 11.6651 8.0388ZM17.8647 14.7742V9.45304C17.8647 7.97698 18.754 6.93826 20.088 6.93826C21.3152 6.93826 22.1334 7.81297 22.1334 9.39838V14.7742H24.6413V8.7059C24.6413 7.37562 24.2678 6.35512 23.5385 5.64442C22.8093 4.93372 21.9022 4.56926 20.8528 4.56926C19.4832 4.56926 18.3271 5.26174 17.8113 6.22756V4.84261H15.3568V14.7742H17.8647ZM35.3624 9.56238C35.3624 9.90862 35.3268 10.2913 35.2734 10.6922H27.9988C28.3545 12.0954 29.2972 12.8061 30.8268 12.8061C31.8762 12.8061 33.1213 12.387 33.9572 11.8038L34.9533 13.6079C33.726 14.5191 32.3209 14.9746 30.7201 14.9746C29.0126 14.9746 27.7142 14.4644 26.8071 13.4621C25.9 12.4599 25.4553 11.2207 25.4553 9.78106C25.4553 8.26855 25.9178 7.02938 26.8605 6.04533C27.8031 5.06129 29.0126 4.56926 30.5067 4.56926C31.9118 4.56926 33.0857 5.02484 33.9928 5.91777C34.8999 6.8107 35.3624 8.01342 35.3624 9.56238ZM30.5264 6.7192C29.2636 6.7192 28.3209 7.50279 28.0186 8.79663H32.9454C32.7142 7.50279 31.8071 6.7192 30.5264 6.7192ZM40.2677 14.9688C38.2223 14.9688 36.3725 14.0758 35.2875 12.454L36.7993 10.577C37.6531 11.7979 38.9337 12.454 40.2855 12.454C41.3704 12.454 42.1708 11.8708 42.1708 11.0143C42.1708 10.4677 41.7795 9.99386 40.9791 9.61117C40.8013 9.52006 40.3744 9.35605 39.6807 9.0827C39.0049 8.80936 38.4891 8.55424 38.1333 8.35378C36.746 7.53374 36.0523 6.42214 36.0523 5.00074C36.0523 3.87091 36.4614 2.94153 37.2974 2.19438C38.1333 1.44724 39.2183 1.06455 40.5345 1.06455C42.242 1.06455 43.6827 1.66592 44.8566 2.88686L43.4515 4.85495C42.7222 4.05314 41.5483 3.59756 40.5701 3.59756C39.5207 3.59756 38.8804 4.10781 38.8804 4.8914C38.8804 5.41987 39.2361 5.85722 39.9475 6.22168L41.2459 6.80482C41.9752 7.11461 42.5088 7.35151 42.8467 7.51552C44.3408 8.26267 45.0878 9.37427 45.0878 10.8686C45.0878 12.0713 44.6431 13.0553 43.7538 13.8207C42.8645 14.5861 41.7084 14.9688 40.2677 14.9688ZM45.5134 9.79928C45.5134 8.34144 45.9937 7.10227 46.9719 6.1C47.9502 5.07951 49.1952 4.56926 50.707 4.56926C52.2189 4.56926 53.4639 5.07951 54.4422 6.1C55.4204 7.10227 55.9007 8.34144 55.9007 9.79928C55.9007 11.2754 55.4204 12.5145 54.4422 13.5168C53.4639 14.5191 52.2189 15.0293 50.707 15.0293C49.1952 15.0293 47.9502 14.5191 46.9719 13.5168C45.9937 12.5145 45.5134 11.2754 45.5134 9.79928ZM48.7913 11.804C49.3071 12.3507 49.9474 12.6241 50.7122 12.6241C51.477 12.6241 52.0996 12.3507 52.6154 11.804C53.1312 11.2391 53.398 10.5648 53.398 9.78126C53.398 8.99766 53.1312 8.32341 52.6154 7.77672C52.0996 7.23003 51.477 6.95668 50.7122 6.95668C49.9474 6.95668 49.3071 7.23003 48.7913 7.77672C48.2755 8.32341 48.0265 8.99766 48.0265 9.78126C48.0265 10.5648 48.2755 11.2391 48.7913 11.804ZM59.2343 3.25496C59.8213 2.6536 59.8213 1.59666 59.2343 1.01352C58.6474 0.41216 57.6158 0.41216 57.0288 1.01352C56.4419 1.59666 56.4419 2.6536 57.0288 3.25496C57.6158 3.85632 58.6474 3.85632 59.2343 3.25496ZM59.386 4.83432H56.8781V14.7659H59.386V4.83432ZM63.2888 0.906393H60.7809V14.7559H63.2888V0.906393Z"
      fill="#20BF55"
    />
  </svg>
