<svg width="16" height="14" viewBox="0 0 16 14" fill="none" xmlns="http://www.w3.org/2000/svg">
<path fill-rule="evenodd" clip-rule="evenodd" d="M10.1055 5.97852C10.1055 8.18018 8.29688 9.96436 6.0625 9.96436C3.83203 9.96436 2.01953 8.18018 2.01953 5.97852C2.01953 3.77734 3.83203 1.99268 6.0625 1.99268C8.29688 1.99268 10.1055 3.77734 10.1055 5.97852ZM10.2031 10.3447C9.12109 11.3452 7.66406 11.9575 6.0625 11.9575C2.71484 11.9575 0 9.28076 0 5.97852C0 2.67676 2.71484 0 6.0625 0C9.41016 0 12.125 2.67676 12.125 5.97852C12.125 6.98193 11.875 7.92725 11.4336 8.75732L15.6406 12.2402C16.0664 12.5938 16.1211 13.2222 15.7656 13.644C15.4062 14.0654 14.7695 14.1206 14.3398 13.7666L10.2031 10.3447Z" fill="#9B9B9B" fill-opacity="0.75"/>
</svg>
